<?xml version="1.0" encoding="UTF-8"?>
<svg version="1.1" xmlns="http://www.w3.org/2000/svg" width="32" height="32">
<path d="M0 0 C0.763125 0.185625 1.52625 0.37125 2.3125 0.5625 C5.08967375 1.22819173 5.08967375 1.22819173 8 0 C8.103125 0.639375 8.20625 1.27875 8.3125 1.9375 C8.6528125 2.9584375 8.6528125 2.9584375 9 4 C9.99 4.33 10.98 4.66 12 5 C11.625 6.9375 11.625 6.9375 11 9 C10.01 9.495 10.01 9.495 9 10 C9.33 11.65 9.66 13.3 10 15 C6.32589215 16.17571451 2.83070817 16.07366746 -1 16 C-1.38218767 14.34385343 -1.71395102 12.67542976 -2 11 C-1.67 10.67 -1.34 10.34 -1 10 C-1.99 9.34 -2.98 8.68 -4 8 C-3.67 6.68 -3.34 5.36 -3 4 C-2.34 4 -1.68 4 -1 4 C-0.67 2.68 -0.34 1.36 0 0 Z " fill="#FAA45C" transform="translate(12,8)"/>
</svg>
